<svg width="1166" height="1153" viewBox="0 0 1166 1153" fill="none" xmlns="http://www.w3.org/2000/svg">
<g id="saif">
<path id="Vector" d="M1.33315 240.341C16.0996 246.031 26.0973 249.484 35.7662 253.694C403.02 413.724 770.208 574.017 1137.69 733.554C1158.12 742.433 1166.27 753.253 1165.38 775.748C1163.64 820.212 1164.86 864.774 1164.86 914.04C1146.64 906.509 1133.15 901.148 1119.87 895.36C757.053 737.434 394.371 579.246 31.2606 422.011C8.60119 412.211 -0.475834 400.602 0.741001 375.607C2.8458 332.229 1.33315 288.653 1.33315 240.341Z" fill="#E9C08A"/>
<path id="Vector_2" d="M1164.66 661.563C904.388 548.233 650.103 437.501 388.155 323.448C455.706 294.244 516.153 267.605 577.192 242.446C583.835 239.716 594.589 244.025 602.416 247.412C783.231 325.914 963.947 404.581 1144.37 484.004C1152.72 487.688 1163.51 498.211 1163.77 505.874C1165.51 555.468 1164.66 605.129 1164.66 661.563Z" fill="#E9C08A"/>
<path id="Vector_3" d="M776.785 830.045C709.629 859.513 651.517 885.559 592.747 910.028C585.117 913.218 573.146 910.225 564.694 906.575C383.518 828.171 202.505 749.373 21.756 669.95C13.4355 666.299 2.61569 655.841 2.35259 648.244C0.609559 598.617 1.46457 548.891 1.46457 492.062C260.42 604.931 514.41 715.663 776.785 830.045Z" fill="#E9C08A"/>
<path id="Vector_4" d="M1.33313 747.958C15.3761 752.891 23.7623 755.292 31.6882 758.745C196.947 830.637 362.075 902.858 527.499 974.388C543.285 981.229 550.52 989.451 550.027 1007.54C548.777 1054.01 549.599 1100.51 549.599 1151.26C536.181 1146.42 526.973 1143.66 518.258 1139.88C355.695 1069.2 193.428 997.837 30.4384 928.214C7.15412 918.282 -0.245577 905.785 0.80682 881.58C2.6814 838.958 1.33313 796.204 1.33313 747.958Z" fill="#E9C08A"/>
<path id="Vector_5" d="M616.525 0.263153C648.229 13.9114 673.651 24.7642 698.974 35.7815C845.158 99.4515 991.146 163.549 1137.66 226.43C1158.08 235.211 1166.27 246.031 1165.35 268.624C1163.54 313.022 1164.82 357.585 1164.82 406.456C1150.75 401.259 1141.64 398.365 1132.92 394.583C970.295 323.809 807.864 252.51 644.874 182.558C623.135 173.218 614.881 161.872 615.966 138.094C617.939 94.4527 616.525 50.6467 616.525 0.263153Z" fill="#E9C08A"/>
<path id="Vector_6" d="M549.5 0C549.5 56.6979 550.191 106.325 548.711 155.919C548.481 163.154 539.338 173.317 531.873 176.638C457.35 209.986 382.432 242.38 307.317 274.347C299.819 277.537 289.032 279.214 281.994 276.254C223.356 251.786 165.244 226.035 98.5153 196.996C251.672 130.103 397.429 66.4326 549.5 0Z" fill="#E9C08A"/>
<path id="Vector_7" d="M1068.23 957.123C915.275 1023.56 769.254 1086.96 617.249 1153C617.249 1095.81 616.657 1043.68 618.137 991.621C618.301 986.063 629.746 979.091 637.277 975.737C710.123 943.31 783.199 911.376 856.373 879.705C863.345 876.68 872.981 872.898 878.901 875.397C940.203 900.984 1000.98 927.853 1068.23 957.123Z" fill="#E9C08A"/>
</g>
</svg>
